HIERARCHY
ROOT Hips
{
	OFFSET	0.00	0.00	0.00
	CHANNELS 6 Xposition Yposition Zposition Zrotation Xrotation Yrotation
	JOINT LeftUpLeg
	{
		OFFSET	 0.126116	-0.014019	-0.065224
		CHANNELS 3 Zrotation Xrotation Yrotation
		JOINT LeftLeg
		{
			OFFSET	 0.000000	 0.000000	 0.569914
			CHANNELS 3 Zrotation Xrotation Yrotation
			JOINT LeftFoot
			{
				OFFSET	 0.000000	 0.000000	 0.544423
				CHANNELS 3 Zrotation Xrotation Yrotation
				JOINT LeftToeBase
				{
					OFFSET	 0.000000	 0.000000	 0.207117
					CHANNELS 3 Zrotation Xrotation Yrotation
					End Site
					{
						OFFSET	 0.000000	 0.000000	 0.207117
					}
				}
			}
		}
	}
	JOINT RightUpLeg
	{
		OFFSET	-0.124023	-0.008373	-0.065224
		CHANNELS 3 Zrotation Xrotation Yrotation
		JOINT RightLeg
		{
			OFFSET	 0.000000	 0.000000	 0.570047
			CHANNELS 3 Zrotation Xrotation Yrotation
			JOINT RightFoot
			{
				OFFSET	 0.000000	 0.000000	 0.544354
				CHANNELS 3 Zrotation Xrotation Yrotation
				JOINT RightToeBase
				{
					OFFSET	 0.000000	 0.000000	 0.207540
					CHANNELS 3 Zrotation Xrotation Yrotation
					End Site
					{
						OFFSET	 0.000000	 0.000000	 0.207540
					}
				}
			}
		}
	}
	JOINT Spine
	{
		OFFSET	 0.000184	-0.007763	 0.117403
		CHANNELS 3 Zrotation Xrotation Yrotation
		JOINT Spine1
		{
			OFFSET	 0.000000	 0.000000	 0.137269
			CHANNELS 3 Zrotation Xrotation Yrotation
			JOINT Spine2
			{
				OFFSET	 0.000000	 0.000000	 0.156879
				CHANNELS 3 Zrotation Xrotation Yrotation
				JOINT LeftShoulder
				{
					OFFSET	 0.080501	-0.002496	 0.160144
					CHANNELS 3 Zrotation Xrotation Yrotation
					JOINT LeftArm
					{
						OFFSET	 0.000000	 0.000000	 0.164363
						CHANNELS 3 Zrotation Xrotation Yrotation
						JOINT LeftForeArm
						{
							OFFSET	 0.000000	 0.000000	 0.364576
							CHANNELS 3 Zrotation Xrotation Yrotation
							JOINT LeftHand
							{
								OFFSET	 0.000000	 0.000000	 0.360812
								CHANNELS 3 Zrotation Xrotation Yrotation
								JOINT LeftHandIndex1
								{
									OFFSET	 0.000000	 0.000000	 0.086006
									CHANNELS 3 Zrotation Xrotation Yrotation
									JOINT LeftHandIndex2
									{
										OFFSET	 0.000000	 0.000000	 0.047237
										CHANNELS 3 Zrotation Xrotation Yrotation
										JOINT LeftHandIndex3
										{
											OFFSET	-0.004284	-0.000551	 0.038165
											CHANNELS 3 Zrotation Xrotation Yrotation
											End Site
											{
												OFFSET	-0.004284	-0.000551	 0.038165
											}
										}
									}
								}
							}
						}
					}
				}
				JOINT Neck
				{
					OFFSET	 0.000000	 0.000000	 0.176489
					CHANNELS 3 Zrotation Xrotation Yrotation
					JOINT Head
					{
						OFFSET	 0.000000	-0.001747	 0.077940
						CHANNELS 3 Zrotation Xrotation Yrotation
						End Site
						{
							OFFSET	 0.000000	-0.001747	 0.077940
						}
					}
				}
				JOINT RightShoulder
				{
					OFFSET	-0.080363	 0.000306	 0.159706
					CHANNELS 3 Zrotation Xrotation Yrotation
					JOINT RightArm
					{
						OFFSET	 0.000000	 0.000000	 0.164196
						CHANNELS 3 Zrotation Xrotation Yrotation
						JOINT RightForeArm
						{
							OFFSET	 0.000000	 0.000000	 0.365611
							CHANNELS 3 Zrotation Xrotation Yrotation
							JOINT RightHand
							{
								OFFSET	 0.000000	 0.000000	 0.360648
								CHANNELS 3 Zrotation Xrotation Yrotation
								JOINT RightHandIndex1
								{
									OFFSET	 0.000000	 0.000000	 0.069977
									CHANNELS 3 Zrotation Xrotation Yrotation
									JOINT RightHandIndex2
									{
										OFFSET	 0.000000	 0.000000	 0.052305
										CHANNELS 3 Zrotation Xrotation Yrotation
										JOINT RightHandIndex3
										{
											OFFSET	 0.009002	-0.000782	 0.042196
											CHANNELS 3 Zrotation Xrotation Yrotation
											End Site
											{
												OFFSET	 0.009002	-0.000782	 0.042196
											}
										}
									}
								}
							}
						}
					}
				}
			}
		}
	}
}
MOTION
Frames:    5
Frame Time: 0.03333334
-0.640705	-0.137931	 1.251311	-159.550400	 2.042192	 7.670815	 16.709290	-10.045590	 163.961100	-8.962140	-29.829090	-3.500039	-69.272350	 77.379940	 67.507090	-2.385833	 28.452760	 0.000004	-2.070641	-44.193970	 176.650100	-28.053630	-56.632230	-14.454920	 25.814910	 33.698070	-35.110650	 2.384659	 28.388700	-0.000001	 75.203850	-9.049193	-17.100100	 46.521630	 23.117070	-5.635213	-17.181950	-4.579515	 7.665896	-91.776100	 78.527380	 179.999900	 8.442225	 26.236970	-52.921230	-39.577080	 7.024908	-10.484630	 21.176900	-16.772860	-0.264674	-4.131196	 21.524690	 0.986298	-5.167839	 0.733520	 3.519257	-1.378229	 35.397820	-2.634230	-14.074240	 16.446190	-7.616735	-28.680730	 2.604151	 5.700268	 89.782160	 78.292620	 179.995200	-5.060822	 69.794030	 3.022575	 29.261160	 6.980724	 10.558550	 103.137600	-38.910930	-17.781660	 5.715225	 19.176060	-3.692089	 5.027514	 0.245388	-9.378011	-2.350882	 35.473990	 5.254307
-0.640404	-0.137257	 1.251831	-159.853400	 2.301789	 8.165696	 17.067860	-10.544210	 163.484800	-8.771525	-29.926750	-3.414258	-71.784240	 78.300130	 69.597150	-2.385833	 28.452760	 0.000004	-0.950589	-44.331610	 176.417200	-24.844810	-56.846920	-11.743330	 34.476410	 40.910800	-38.879050	 2.384659	 28.388700	-0.000001	 75.029020	-10.820080	-17.864460	 46.681240	 24.819100	-6.378133	-17.097790	-4.810703	 7.613592	-91.776210	 78.527420	-180.000000	 8.260767	 26.262960	-52.970350	-39.200980	 7.020953	-10.485320	 21.607430	-16.498380	-0.506349	-4.131196	 21.524690	 0.986298	-5.167839	 0.733520	 3.519257	-1.378229	 35.397820	-2.634230	-13.981900	 16.350830	-7.877010	-28.735220	 2.479444	 5.559119	 89.782140	 78.299520	 179.994300	-5.123563	 69.803970	 3.341505	 28.672690	 6.974460	 10.560670	 102.616700	-38.326710	-17.280740	 5.715225	 19.176060	-3.692089	 5.027514	 0.245388	-9.378011	-2.350882	 35.473990	 5.254307
-0.640181	-0.136850	 1.252183	-159.926800	 2.286393	 8.146686	 17.484010	-10.537010	 163.465000	-8.688823	-29.789610	-3.358574	-75.548230	 78.907470	 73.133230	-2.385833	 28.452760	 0.000004	-1.097771	-44.295390	 176.408200	-23.520990	-56.965550	-10.631260	 37.411500	 43.109940	-40.415210	 2.384659	 28.388700	-0.000001	 74.916370	-11.560250	-18.108970	 46.754800	 25.998880	-7.106817	-17.009640	-5.292673	 7.781623	-91.776120	 78.527420	 180.000000	 8.078682	 26.346170	-52.911900	-39.003720	 7.017710	-10.484650	 21.734950	-16.436640	-0.581453	-4.131196	 21.524690	 0.986298	-5.167839	 0.733520	 3.519257	-1.378229	 35.397820	-2.634230	-13.998930	 16.290350	-7.810287	-28.733720	 2.472967	 5.437540	 89.782220	 78.304370	 179.993700	-5.335590	 69.854410	 3.642589	 28.332970	 6.969847	 10.559260	 102.769300	-37.616390	-16.527870	 5.715225	 19.176060	-3.692089	 5.027514	 0.245388	-9.378011	-2.350882	 35.473990	 5.254307
-0.639510	-0.135966	 1.252757	-160.201900	 2.353902	 8.169808	 18.395140	-10.660430	 163.388900	-8.446310	-29.566690	-3.214879	-83.279740	 79.813700	 80.410160	-2.385833	 28.452760	 0.000004	-1.834842	-44.322710	 176.153800	-21.068540	-57.060710	-8.560110	 42.485820	 46.847190	-43.115230	 2.384659	 28.388700	-0.000001	 74.877100	-12.690830	-18.515720	 46.873740	 27.687280	-7.962842	-16.886870	-5.900351	 7.947168	-91.776210	 78.527430	-180.000000	 7.808959	 26.441170	-52.831100	-38.602200	 7.012820	-10.487120	 21.992800	-16.314910	-0.729123	-4.131196	 21.524690	 0.986298	-5.167839	 0.733520	 3.519257	-1.378229	 35.397820	-2.634230	-14.024310	 16.232230	-7.701906	-28.722210	 2.433873	 5.217762	 89.782100	 78.312770	 179.992800	-5.672937	 69.964010	 4.137580	 27.634770	 6.960330	 10.558730	 102.731100	-36.703330	-15.218380	 5.715225	 19.176060	-3.692089	 5.027514	 0.245388	-9.378011	-2.350882	 35.473990	 5.254307
-0.638540	-0.135336	 1.252794	-161.014600	 2.753843	 8.498119	 19.567910	-11.348040	 163.138000	-7.951100	-29.643100	-2.975285	-87.547900	 80.004360	 84.138280	-2.385833	 28.452760	 0.000004	-2.853532	-44.727550	 175.298100	-19.591350	-56.820820	-7.290758	 43.270920	 48.782040	-42.396550	 2.384659	 28.388700	-0.000001	 75.612540	-12.720230	-18.847650	 46.692630	 27.322540	-6.560709	-16.951910	-5.402051	 7.495241	-91.776180	 78.527420	-180.000000	 8.011926	 26.120920	-52.952940	-38.182810	 7.004176	-10.484230	 22.246530	-16.201930	-0.876348	-4.131196	 21.524690	 0.986298	-5.167839	 0.733520	 3.519257	-1.378229	 35.397820	-2.634230	-14.012990	 16.444820	-7.702012	-28.673800	 2.282453	 5.101194	 89.782140	 78.315480	 179.992600	-6.419349	 70.116360	 4.880522	 26.874680	 6.949183	 10.558070	 101.450400	-37.905290	-14.843590	 5.715225	 19.176060	-3.692089	 5.027514	 0.245388	-9.378011	-2.350882	 35.473990	 5.254307
